<?xml version="1.0" standalone="no"?>
<!DOCTYPE svg PUBLIC "-//W3C//DTD SVG 20010904//EN"
 "http://www.w3.org/TR/2001/REC-SVG-20010904/DTD/svg10.dtd">
<svg version="1.0" xmlns="http://www.w3.org/2000/svg"
 width="123.000000pt" height="28.000000pt" viewBox="0 0 123.000000 28.000000"
 preserveAspectRatio="xMidYMid meet">

<g transform="translate(0.000000,28.000000) scale(0.100000,-0.100000)"
fill="#000000" stroke="none">
<path d="M762 178 c-19 -19 -14 -44 13 -56 30 -14 33 -42 5 -42 -11 0 -20 5
-20 10 0 6 -5 10 -12 10 -6 0 -3 -9 7 -20 22 -24 29 -25 49 -4 23 22 20 33
-14 52 -37 21 -40 46 -5 40 28 -6 34 6 9 16 -20 8 -18 8 -32 -6z"/>
<path d="M397 133 c-19 -53 -22 -77 -6 -50 13 22 45 22 58 0 5 -10 12 -16 14
-13 6 7 -34 110 -42 110 -4 0 -15 -21 -24 -47z m39 -20 c-2 -3 -11 -3 -19 -1
-11 2 -12 9 -5 28 l10 25 9 -24 c5 -13 7 -26 5 -28z"/>
<path d="M252 147 c-23 -46 -23 -64 -3 -70 14 -3 20 2 24 22 3 14 8 33 12 42
10 26 -21 31 -33 6z"/>
<path d="M1089 158 c-5 -60 11 -112 28 -93 5 4 2 10 -4 12 -15 5 -18 60 -4 65
5 2 3 9 -5 16 -11 10 -14 10 -15 0z"/>
<path d="M481 86 c1 -34 4 -51 6 -38 3 17 9 21 22 17 24 -7 43 18 39 52 -3 24
-8 28 -35 29 l-33 1 1 -61z m54 24 c0 -29 -32 -41 -41 -16 -9 24 4 48 23 44
12 -2 18 -12 18 -28z"/>
<path d="M560 88 c0 -33 4 -58 10 -58 6 0 9 16 7 37 -2 21 0 46 5 56 11 21 34
22 42 2 9 -23 -4 -45 -27 -45 -14 0 -18 -3 -11 -10 16 -16 43 -1 50 26 8 32
-12 55 -47 52 -28 -2 -29 -4 -29 -60z"/>
<path d="M650 131 c0 -11 9 -23 20 -26 11 -3 20 -11 20 -17 0 -6 -9 -8 -20 -5
-24 6 -27 -8 -4 -17 17 -6 44 9 44 25 0 5 -11 15 -25 21 -30 13 -34 33 -5 25
11 -3 20 -1 20 4 0 5 -11 9 -25 9 -18 0 -25 -5 -25 -19z"/>
<path d="M837 143 c-12 -12 -7 -60 7 -72 11 -9 20 -10 35 -1 28 15 26 19 -6
17 -24 -2 -28 2 -28 23 0 19 5 25 23 24 12 0 22 3 22 8 0 10 -44 11 -53 1z"/>
<path d="M911 105 c2 -33 3 -35 6 -10 2 17 11 35 20 42 13 10 13 12 -6 10 -18
-1 -21 -7 -20 -42z"/>
<path d="M960 110 c0 -22 5 -40 10 -40 6 0 10 18 10 40 0 22 -4 40 -10 40 -5
0 -10 -18 -10 -40z"/>
<path d="M990 90 c0 -33 4 -60 10 -60 6 0 10 9 10 20 0 12 5 17 14 14 17 -6
46 22 46 45 0 25 -20 41 -52 41 -28 0 -28 -1 -28 -60z m59 36 c14 -17 4 -46
-15 -46 -18 0 -28 24 -20 45 7 19 20 19 35 1z"/>
<path d="M125 80 c-13 -20 8 -30 63 -29 42 0 52 2 36 9 -12 5 -25 13 -29 19
-8 14 -62 14 -70 1z m25 -10 c0 -5 -4 -10 -10 -10 -5 0 -10 5 -10 10 0 6 5 10
10 10 6 0 10 -4 10 -10z"/>
</g>
</svg>
